ply
format ascii 1.0
element vertex 18
property float x
property float y
property float z
property float u
property float v
element face 12
property list uchar int vertex_indices
end_header
0 0 0 0.825901 0.662557
0 0 1 0.525941 0.56164
0 1 1 0.000422478 0.958401
0 1 0 0.234178 0.537678
1 0 0 0.945255 0.95597
1 0 1 0.520158 0.958263
1 1 1 0.676063 0.280361
1 1 0 0.241845 0.200819
1 0 0 0.509136 0.334492
1 0 1 0.509136 0.000355899
1 1 0 0.999283 0.280392
1 0 1 0.514442 0.000469118
1 1 0 0.000422508 0.537678
0 1 1 0.514442 0.560315
0 1 0 0.241845 0.534938
0 1 0 0.997489 0.480952
0 0 1 0.421146 0.72227
1 0 1 0.421146 0.958401
3 0 4 1
3 4 5 1
3 8 7 9
3 10 6 11
3 3 2 12
3 6 10 13
3 14 7 8
3 4 0 15
3 2 3 16
3 1 15 0
3 16 17 2
3 6 13 11
